<svg xmlns="http://www.w3.org/2000/svg" width="26" height="26" viewBox="0 0 26 26">
  <path fill="#000000" fill-rule="evenodd" d="M13,26 C20.18,26 26,20.18 26,13 C26,5.82 20.18,0 13,0 C5.82,0 0,5.82 0,13 C0,20.18 5.82,26 13,26 Z M11.257,5 C13.636,5.8 14.614,6.668 16.014,8.2 C16.025,10.234 14.969,12.238 14.969,12.238 C14.969,12.238 16.781,11.264 17.599,9.799 C20.36,13.472 20.746,18.088 14.428,20.999 C14.428,20.999 15.741,18.845 15.221,17.799 C14.702,16.753 12.844,16.999 13.636,13.799 C8.879,16.199 11.257,20.999 11.257,20.999 C11.257,20.999 6.5,18.537 6.5,15.398 C6.5,10.294 13.174,11.133 11.257,5 Z"/>
</svg>
