<svg xmlns="http://www.w3.org/2000/svg" width="372" height="358" viewBox="0 0 372 358" xmlns:xlink="http://www.w3.org/1999/xlink">
  <defs>
    <linearGradient id="b" x1="50%" x2="50%" y1="0%" y2="88.043%">
      <stop stop-color="#015374" offset="0%"/>
      <stop stop-color="#21A08C" offset="100%"/>
    </linearGradient>
    <circle id="a" cx="179" cy="130" r="130"/>
  </defs>
  <g fill="none" fill-rule="evenodd">
    <mask id="c" fill="white">
      <use xlink:href="#a"/>
    </mask>
    <use fill="url(#b)" xlink:href="#a"/>
    <path fill="#65C1AF" d="M9.12622897,224 C2.81036264,216.587798 -1,206.987513 -1,196.5 C-1,173.027898 18.0864549,154 41.6307902,154 C58.9504802,154 73.8578455,164.296703 80.529668,179.084756 C101.547844,180.119144 118.202083,190.496833 119.145797,203.347988 C120.82345,203.119524 122.554493,203 124.324251,203 C139.642252,203 152.059946,211.954305 152.059946,223 C152.059946,223.335325 152.048501,223.668722 152.025879,224 L152.970672,224 C156.025349,220.98047 161.149314,219 166.955041,219 C172.760768,219 177.884732,220.98047 180.93941,224 L184.594123,224 C187.882975,220.349194 193.023171,218 198.799728,218 C203.057846,218 206.970183,219.276487 210.05009,221.409861 C214.551971,211.146236 224.609429,204 236.294278,204 C238.226908,204 240.115019,204.195492 241.940838,204.568247 C247.452345,190.191493 261.243299,180 277.384196,180 C278.424488,180 279.455018,180.042334 280.4742,180.125395 C288.096159,164.600762 303.402377,154 321.042234,154 C346.28857,154 366.754768,175.71419 366.754768,202.5 C366.754768,210.220906 365.054317,217.520433 362.029083,224.000004 L376,224 L376,291 L3.10899183,291 L3.10899183,224 L9.12622897,224 Z" opacity=".6" mask="url(#c)"/>
    <g fill="#FFFFFF" transform="translate(141 30)" mask="url(#c)">
      <path d="M48.7201083 185.644761C48.8367084 201.500497 54.0771999 224.255217 54.0771999 224.255217L21.9228001 224.255217C21.9228001 224.255217 27.1619242 201.512022 27.2798458 185.651157 27.1121488 164.722787 16.5637335 124 16.5637335 124L59.4362665 124C59.4362665 124 48.8859153 164.214609 48.7201083 185.644761zM13.448709 107.910249L.951171875 107.910249C.951171875 107.910249.951171875 85.1621724 13.6739521 77.9002454 14.8352724 43.4175182 19.7599813-.641247522 37.3743772.00707203221 54.8247472.649354409 60.1638064 43.6179201 61.6562063 77.5384536 75.0488281 84.3705773 75.0488281 107.910249 75.0488281 107.910249L62.1613583 107.910249C62.102336 114.243776 61.9602934 118.110051 61.9602934 118.110051L13.7286938 118.110051C13.7286938 118.110051 13.5586804 114.243775 13.448709 107.910249zM37.9306705 45.6377686C42.3702667 45.6377686 45.9692704 42.0325524 45.9692704 37.5852928 45.9692704 33.1380331 42.3702667 29.5328169 37.9306705 29.5328169 33.4910744 29.5328169 29.8920706 33.1380331 29.8920706 37.5852928 29.8920706 42.0325524 33.4910744 45.6377686 37.9306705 45.6377686z"/>
    </g>
    <g transform="translate(65 36)" opacity=".453" mask="url(#c)" stroke-linecap="square">
      <g transform="translate(0 79)">
        <path stroke="#FFFFFF" d="M2.5.5L2.5 4.5M4.5 2.5L.5 2.5"/>
      </g>
      <g transform="translate(36 49)">
        <path stroke="#FFFFFF" d="M2.5.5L2.5 4.5M4.5 2.5L.5 2.5"/>
      </g>
      <g transform="translate(42 109)">
        <path stroke="#FFFFFF" d="M2.5.5L2.5 4.5M4.5 2.5L.5 2.5"/>
      </g>
      <g transform="translate(74 126)">
        <path stroke="#FFFFFF" d="M2.5.5L2.5 4.5M4.5 2.5L.5 2.5"/>
      </g>
      <g transform="translate(157 128)">
        <path stroke="#FFFFFF" d="M2.5.5L2.5 4.5M4.5 2.5L.5 2.5"/>
      </g>
      <g transform="translate(199 91)">
        <path stroke="#FFFFFF" d="M2.5.5L2.5 4.5M4.5 2.5L.5 2.5"/>
      </g>
      <g transform="translate(207 41)">
        <path stroke="#FFFFFF" d="M2.5.5L2.5 4.5M4.5 2.5L.5 2.5"/>
      </g>
      <g transform="translate(170 43)">
        <path stroke="#FFFFFF" d="M2.5.5L2.5 4.5M4.5 2.5L.5 2.5"/>
      </g>
      <g transform="translate(170)">
        <path stroke="#FFFFFF" d="M2.5.5L2.5 4.5M4.5 2.5L.5 2.5"/>
      </g>
      <g transform="translate(48 2)">
        <path stroke="#FFFFFF" d="M2.5.5L2.5 4.5M4.5 2.5L.5 2.5"/>
      </g>
    </g>
    <g transform="translate(0 170)">
      <path fill="#E8EFF9" d="M10.8576287,70 C4.70929201,62.587798 1,52.9875127 1,42.5 C1,19.0278981 19.5801829,0 42.5,0 C59.3602818,0 73.8722263,10.2967029 80.3670773,25.0847561 C100.827742,26.1191441 117.040224,36.4968327 117.958906,49.3479882 C119.592058,49.119524 121.277186,49 123,49 C137.911688,49 150,57.954305 150,69 C150,69.3353248 149.988859,69.6687221 149.966837,70 L150.886569,70 C153.860221,66.9804704 158.848271,65 164.5,65 C170.151729,65 175.139779,66.9804704 178.113431,70 L181.671202,70 C184.872816,66.3491942 189.876667,64 195.5,64 C199.645171,64 203.453732,65.2764865 206.451945,67.4098607 C210.834412,57.146236 220.625094,50 232,50 C233.881367,50 235.719395,50.1954918 237.496784,50.5682467 C242.862097,36.1914931 256.287244,26 272,26 C273.012698,26 274.015893,26.0423343 275.008041,26.1253951 C282.427825,10.600762 297.328043,0 314.5,0 C339.076671,0 359,21.7141896 359,48.5 C359,56.2209064 357.344654,63.5204329 354.399664,70.0000038 L368,70 L368,137 L5,137 L5,70 L10.8576287,70 Z"/>
      <path fill="#FFFFFF" d="M4,66.7279245 C1.43524386,61.2039788 -1.13686838e-13,55.0236378 -1.13686838e-13,48.5 C-1.13686838e-13,25.0278981 18.5801829,6 41.5,6 C58.3602818,6 72.8722263,16.2967029 79.3670773,31.0847561 C99.8277425,32.1191441 116.040224,42.4968327 116.958906,55.3479882 C118.592058,55.119524 120.277186,55 122,55 C136.911688,55 149,63.954305 149,75 C149,75.7518171 148.943998,76.4939453 148.834915,77.2242206 C151.578545,73.5270363 157.115853,71 163.5,71 C170.54968,71 176.566756,74.0813751 178.929849,78.4171035 C181.834099,73.4187396 187.716289,70 194.5,70 C198.645171,70 202.453732,71.2764865 205.451945,73.4098607 C209.834412,63.146236 219.625094,56 231,56 C232.881367,56 234.719395,56.1954918 236.496784,56.5682467 C241.862097,42.1914931 255.287244,32 271,32 C272.012698,32 273.015893,32.0423343 274.008041,32.1253951 C281.427825,16.600762 296.328043,6 313.5,6 C338.076671,6 358,27.7141896 358,54.5 C358,59.89164 357.192776,65.0777955 355.702862,69.9227388 L372,66.265625 L372,143 L4,143 L4,66.7279245 Z M146.891804,82.7610453 C146.928404,82.6967133 146.964563,82.6322097 147.000279,82.5675367 C147.000814,82.632456 147.002122,82.6972477 147.004195,82.7619078 C146.966669,82.7616202 146.929205,82.7613327 146.891804,82.7610453 Z"/>
    </g>
    <path fill="#333333" d="M34.84 260.856L34.84 265.968C35.872 266.472 36.808 266.808 37.672 266.976 38.536 267.144 39.424 267.216 40.336 267.216 41.2 267.216 42.04 267.096 42.832 266.88 43.624 266.664 44.32 266.328 44.92 265.872 45.52 265.416 46 264.84 46.36 264.168 46.72 263.496 46.912 262.704 46.912 261.792L46.912 253.704 48.256 253.392C48.544 253.344 48.76 253.152 48.88 252.792 49 252.432 49.072 252.072 49.072 251.688 49.072 251.28 49.024 250.944 48.928 250.656 48.832 250.368 48.64 250.224 48.376 250.224L40.024 250.224C39.76 250.224 39.568 250.368 39.472 250.656 39.376 250.944 39.328 251.28 39.328 251.688 39.328 252.072 39.4 252.432 39.52 252.792 39.64 253.152 39.856 253.344 40.144 253.392L41.728 253.704 41.728 261.648C41.728 262.248 41.608 262.704 41.392 263.016 41.176 263.328 40.696 263.496 39.976 263.496 39.832 263.496 39.64 263.472 39.4 263.424 39.16 263.376 38.968 263.304 38.8 263.208L38.32 260.952C38.296 260.832 38.224 260.712 38.104 260.616 37.984 260.52 37.84 260.424 37.648 260.352 37.456 260.28 37.24 260.232 37 260.208 36.76 260.184 36.544 260.16 36.328 260.16 35.92 260.16 35.584 260.208 35.296 260.328 35.008 260.448 34.864 260.616 34.864 260.856L34.84 260.856zM56.62 253.68L56.62 260.208C56.62 261.576 56.812 262.704 57.172 263.592 57.532 264.48 58.036 265.2 58.708 265.728 59.38 266.256 60.196 266.64 61.156 266.856 62.116 267.072 63.196 267.168 64.396 267.168 65.572 267.168 66.652 267.048 67.612 266.832 68.572 266.616 69.388 266.232 70.06 265.704 70.732 265.176 71.236 264.456 71.596 263.568 71.956 262.68 72.148 261.552 72.148 260.184L72.148 253.656 73.492 253.344C73.78 253.272 73.996 253.08 74.116 252.744 74.236 252.408 74.308 252.048 74.308 251.664 74.308 251.256 74.26 250.896 74.164 250.584 74.068 250.272 73.9 250.128 73.66 250.128L66.1 250.128C65.836 250.128 65.644 250.272 65.548 250.56 65.452 250.848 65.404 251.184 65.404 251.592 65.404 251.976 65.476 252.336 65.596 252.672 65.716 253.008 65.932 253.224 66.22 253.296L67.54 253.608 67.54 260.136C67.54 260.928 67.444 261.552 67.228 261.984 67.012 262.416 66.772 262.728 66.484 262.944 66.196 263.16 65.908 263.28 65.596 263.328 65.284 263.376 65.02 263.4 64.804 263.4 64.564 263.4 64.276 263.376 63.964 263.328 63.652 263.28 63.34 263.16 63.052 262.944 62.764 262.728 62.524 262.392 62.308 261.96 62.092 261.528 61.996 260.904 61.996 260.112L61.996 253.584 63.076 253.272C63.364 253.2 63.58 253.008 63.7 252.696 63.82 252.384 63.892 252.024 63.892 251.64 63.892 251.232 63.844 250.872 63.748 250.56 63.652 250.248 63.484 250.104 63.244 250.104L55.084 250.104C54.82 250.104 54.652 250.248 54.556 250.536 54.46 250.824 54.412 251.16 54.412 251.568 54.412 251.952 54.484 252.312 54.604 252.672 54.724 253.032 54.916 253.224 55.18 253.272L56.62 253.68zM79.72 261.192L79.72 265.896C80.488 266.232 81.448 266.544 82.6 266.808 83.752 267.072 85 267.216 86.368 267.216 87.352 267.216 88.312 267.12 89.248 266.952 90.184 266.784 91.024 266.496 91.768 266.112 92.512 265.728 93.112 265.2 93.568 264.552 94.024 263.904 94.24 263.112 94.24 262.176 94.24 261.528 94.144 260.952 93.976 260.472 93.808 259.992 93.544 259.56 93.208 259.2 92.872 258.84 92.44 258.504 91.912 258.216 91.384 257.928 90.76 257.64 90.064 257.376L87.088 256.248C86.92 256.176 86.752 256.104 86.56 256.008 86.368 255.912 86.2 255.816 86.032 255.696 85.864 255.576 85.744 255.432 85.648 255.264 85.552 255.096 85.504 254.904 85.504 254.688 85.504 254.256 85.696 253.944 86.08 253.776 86.464 253.608 86.968 253.512 87.568 253.512 88 253.512 88.36 253.536 88.672 253.584 88.984 253.632 89.272 253.68 89.56 253.752L90.136 255.744C90.184 255.888 90.28 256.008 90.424 256.104 90.568 256.2 90.736 256.272 90.928 256.344 91.12 256.416 91.336 256.464 91.552 256.488 91.768 256.512 91.984 256.536 92.176 256.536 92.536 256.536 92.896 256.488 93.232 256.392 93.568 256.296 93.736 256.104 93.736 255.84L93.736 251.064C92.968 250.752 92.056 250.488 91 250.296 89.944 250.104 88.84 250.008 87.664 250.008 86.56 250.008 85.552 250.104 84.616 250.296 83.68 250.488 82.864 250.8 82.192 251.208 81.52 251.616 80.992 252.144 80.608 252.768 80.224 253.392 80.032 254.136 80.032 255 80.032 256.224 80.368 257.232 81.04 258.048 81.712 258.864 82.624 259.488 83.776 259.92L86.824 261.072C87.304 261.24 87.688 261.408 87.976 261.552 88.264 261.696 88.48 261.84 88.624 261.984 88.768 262.128 88.864 262.248 88.912 262.368 88.96 262.488 88.984 262.608 88.984 262.728 88.984 262.848 88.96 262.968 88.912 263.088 88.864 263.208 88.768 263.304 88.6 263.4 88.432 263.496 88.192 263.568 87.88 263.616 87.568 263.664 87.136 263.688 86.584 263.688 85.984 263.688 85.48 263.664 85.048 263.616 84.616 263.568 84.256 263.472 83.944 263.328L83.416 261.288C83.392 261.144 83.296 261.024 83.152 260.928 83.008 260.832 82.84 260.76 82.648 260.688 82.456 260.616 82.24 260.568 82.024 260.544 81.808 260.52 81.592 260.496 81.4 260.496 81.04 260.496 80.68 260.544 80.344 260.64 80.008 260.736 79.84 260.928 79.84 261.192L79.72 261.192zM105.94 263.52L104.236 263.832C103.948 263.88 103.732 264.072 103.612 264.432 103.492 264.792 103.42 265.176 103.42 265.584 103.42 265.944 103.468 266.28 103.564 266.568 103.66 266.856 103.852 267 104.116 267L112.948 267C113.212 267 113.404 266.856 113.5 266.568 113.596 266.28 113.644 265.944 113.644 265.584 113.644 265.176 113.572 264.792 113.452 264.432 113.332 264.072 113.116 263.88 112.828 263.832L111.124 263.52 111.124 253.896 113.212 253.896 113.668 256.344C113.692 256.488 113.764 256.608 113.908 256.704 114.052 256.8 114.22 256.872 114.412 256.944 114.604 257.016 114.796 257.064 115.012 257.088 115.228 257.112 115.444 257.136 115.636 257.136 115.996 257.136 116.356 257.088 116.692 256.968 117.028 256.848 117.196 256.656 117.196 256.392L117.196 250.152 99.94 250.152 99.94 256.392C99.94 256.656 100.108 256.848 100.444 256.968 100.78 257.088 101.14 257.136 101.5 257.136 101.908 257.136 102.316 257.064 102.724 256.92 103.132 256.776 103.372 256.56 103.444 256.296L103.924 253.848 106.012 253.848 105.94 263.52zM50.0648779 349.339045L65.9294513 345.656745C68.1667741 345.072906 70.3277921 343.77169 72.4125702 341.753059L74.4719139 343.961455C73.454949 345.396347 72.6413892 346.485768 72.0312103 347.229752 71.4210313 347.973735 70.5184885 348.781292 69.3235547 349.652446 68.128621 350.5236 66.7938745 351.151569 65.3192754 351.536373L51.0564138 354.648154C44.700383 356.306789 41.5986866 357.192462 41.7512313 357.305199 39.8698462 357.745307 38.9291678 357.151798 38.9291678 355.524654 39.0817125 354.467882 39.7681535 352.598073 40.9885114 349.915172 42.2088693 347.232271 43.8614125 342.517132 45.9461906 335.769613 42.7935994 336.592296 39.971564 336.388041 37.48 335.15684L39.0817117 331.916803C41.2681863 332.769983 43.9376792 332.785232 47.0902704 331.962549 50.0394687 323.972492 53.7767587 317.581972 58.3022526 312.790799 62.8277464 307.999626 67.5565624 304.960534 72.4888422 303.673434 74.8278615 303.063056 76.7092184 303.169565 78.1329693 303.992965 79.5567202 304.816365 80.2685849 306.219584 80.2685849 308.202666 80.2685849 312.473918 77.4592615 317.211263 71.8405303 322.414842 66.2217992 327.618422 59.8277282 331.384442 52.6581255 333.713016 50.3191062 341.747237 47.7004608 347.489909 44.8021108 350.941204 46.0733169 350.456932 47.8275551 349.922885 50.0648779 349.339045zM68.2938829 308.886814C65.1412917 309.709497 62.2175614 312.074153 59.5226044 315.980854 56.8276473 319.887555 54.895443 324.535842 53.7259333 329.925855 58.8107579 328.24301 63.2599127 325.556558 67.0735311 321.866421 70.8871495 318.176283 72.7939302 314.856664 72.7939302 311.907466 72.7939302 310.737957 72.3617266 309.859216 71.4973064 309.271218 70.6328862 308.683221 69.5650891 308.555087 68.2938829 308.886814zM114.514707 331.910397L116.268963 332.74924C115.557088 334.460455 114.247765 336.251281 112.340956 338.121775 110.434146 339.992268 108.69262 341.133168 107.116324 341.544509 104.116278 342.327385 102.616277 341.142545 102.616277 337.989953 102.616277 336.515354 102.997633 334.6616 103.760357 332.428634L100.938294 336.063399C98.1924882 339.576583 95.8153684 342.07826 93.8068627 343.568505 91.798357 345.05875 89.828017 346.05597 87.8957837 346.560195 85.9635503 347.06442 84.5016852 346.89929 83.5101444 346.0648 82.5186036 345.23031 82.0228406 343.846969 82.0228406 341.914735 82.0228406 338.355358 83.3957227 334.47591 86.141528 330.276275 88.8873332 326.07664 92.3958096 322.32634 96.6670622 319.025263 100.938315 315.724186 105.209503 313.490956 109.480756 312.325505L109.6333 314.802673 106.429877 316.325069C101.802686 318.54952 97.7221757 321.648247 94.1882226 325.621342 90.6542695 329.594438 88.8873195 333.093669 88.8873195 336.119139 88.8873195 339.14461 90.1076591 340.33887 92.5483749 339.701954 94.836546 339.104845 97.6585813 336.766727 101.014566 332.687528 104.37055 328.60833 107.167161 324.115828 109.404484 319.209887L112.607908 320.280739C109.455316 327.459453 107.879044 331.913163 107.879044 333.642003 107.879044 334.353879 108.12057 334.888309 108.603628 335.245312 109.086687 335.602314 109.569738 335.717785 110.052796 335.591729 110.535854 335.465672 110.853651 335.357318 111.006196 335.266663 111.158741 335.176007 111.311283 335.072641 111.463828 334.956562 111.616373 334.840482 111.807051 334.676317 112.035868 334.464061 112.264685 334.251806 112.468075 334.046188 112.646044 333.847201 112.824012 333.648215 113.116385 333.343105 113.523171 332.931863 113.929957 332.520621 114.260466 332.180136 114.514707 331.910397zM148.150654 322.446498L149.752365 323.325148C148.887945 325.686349 147.527775 327.846377 145.671814 329.805298 143.815853 331.764218 142.137886 332.939379 140.637863 333.330817 139.13784 333.722255 137.955636 333.50957 137.091216 332.692755 136.226795 331.87594 135.794592 330.628556 135.794592 328.950564 135.794592 327.272571 136.074253 325.038575 136.633584 322.248506 134.243716 326.634923 131.675918 330.254155 128.930113 333.106312 126.184308 335.958468 123.870747 337.629999 121.989362 338.120955 119.14186 338.864024 117.718131 337.201653 117.718131 333.133793 117.718131 329.676112 118.887623 324.947197 121.226642 318.946906 123.565661 312.946614 125.269052 309.374986 126.336865 308.231916L129.997921 308.878258C127.913143 312.778275 126.336871 316.494696 125.269057 320.027635 124.201244 323.560573 123.667346 325.873626 123.667346 326.966864 123.667346 328.060101 124.010566 328.847655 124.697018 329.32955 125.383469 329.811444 126.184317 329.932968 127.099585 329.694125 129.133515 329.163362 131.663177 326.63459 134.688648 322.107734 137.714119 317.580878 140.803103 311.194282 143.955694 302.947755L147.845566 303.686932C147.743869 304.120256 146.587089 307.371277 144.37519 313.440092 142.163292 319.508908 141.057359 323.08988 141.057359 324.183117 141.057359 325.276355 141.298884 326.039599 141.781943 326.472874 142.265001 326.906148 142.748052 327.059755 143.231111 326.933699 143.714169 326.807642 144.082813 326.686019 144.337054 326.568826 144.591296 326.451632 144.845533 326.283593 145.099774 326.064703 145.354015 325.845812 145.570117 325.662301 145.748086 325.514163 145.926055 325.366024 146.142157 325.131666 146.396398 324.811079L147.006574 324.117947C147.10827 323.938864 147.298948 323.64758 147.578614 323.244087 147.858279 322.840593 148.048957 322.574733 148.150654 322.446498zM183.083224 312.491696L184.684936 313.294074C183.566274 315.823316 182.028138 318.106057 180.07048 320.142363 178.112823 322.17867 176.345873 323.402476 174.769577 323.813817 173.193282 324.225159 171.947518 324.092619 171.03225 323.416194 170.116982 322.739769 169.659354 321.715121 169.659354 320.342218 169.659354 318.969315 170.536473 316.337884 172.290738 312.447844 174.045002 308.557804 174.922121 305.799254 174.922121 304.17211 174.922121 303.460234 174.629748 302.888225 174.044993 302.456064 173.460239 302.023904 172.761086 301.913978 171.947514 302.126283 169.354253 302.803006 166.735608 305.456694 164.091499 310.087425 161.44739 314.718156 158.498236 321.169957 155.243949 329.443022L150.667629 329.035521C151.633746 322.885012 153.01934 316.764958 154.824453 310.675174 156.629565 304.585391 158.29482 300.121172 159.820268 297.282384L162.947419 297.457875C161.523668 301.439635 159.718583 308.139497 157.532108 317.557662 164.549166 303.726343 171.006796 296.041193 176.905193 294.50198 178.176399 294.170253 179.231484 294.327127 180.07048 294.972608 180.909476 295.618088 181.328968 296.525569 181.328968 297.695079 181.328968 298.864589 181.176426 299.959481 180.871336 300.979788 180.566247 302.000095 179.612857 304.435328 178.011137 308.28556 176.409417 312.135793 175.608569 314.493084 175.608569 315.357504 175.608569 316.221924 175.862807 316.829309 176.371289 317.179677 176.879772 317.530044 177.362823 317.645515 177.820457 317.526094 178.278091 317.406672 178.659447 317.230884 178.964537 316.998725 179.269626 316.766566 179.612847 316.448187 179.994208 316.04358 180.37557 315.638972 180.718791 315.269746 181.02388 314.93589 181.32897 314.602035 181.697614 314.162615 182.129824 313.617617 182.562034 313.07262 182.879831 312.697317 183.083224 312.491696zM207.185172 304.600472L209.0157 305.648228C207.795342 308.763339 205.837714 311.51148 203.142757 313.892734 200.4478 316.273987 197.841866 317.793 195.324878 318.44982 192.80789 319.106639 190.723143 318.862527 189.070575 317.717476 187.418007 316.572426 186.591735 314.627027 186.591735 311.881222 186.591735 309.135417 187.786651 305.84902 190.176519 302.021934 192.566386 298.194848 195.655371 294.744694 199.443565 291.67137 203.23176 288.598046 206.956338 286.583727 210.617411 285.628353 211.125894 285.495662 211.888606 285.347477 212.905571 285.183792L212.676755 288.21811C207.083448 289.93195 202.443615 292.846125 198.757117 296.960725 195.07062 301.075324 193.227398 304.912255 193.227398 308.471632 193.227398 309.946231 193.685026 311.021727 194.600294 311.698152 195.515562 312.374577 196.710478 312.520386 198.185077 312.135583 200.524097 311.525205 203.524098 309.013527 207.185172 304.600472zM243.795726 300.309551L245.549982 301.300938C243.414355 305.417617 240.643167 307.920433 237.236335 308.809461 234.287137 309.579067 232.81256 308.514711 232.81256 305.616361 232.81256 303.938369 233.537136 301.067083 234.986311 297.002417 236.435486 292.93775 237.160063 290.320701 237.160063 289.151192 237.160063 287.676592 236.219385 287.184778 234.337999 287.675734 232.456614 288.16669 229.901528 290.854639 226.672665 295.739661 223.443801 300.624682 220.736173 306.021931 218.549698 311.931567L214.049651 311.504163C216.69376 297.542778 223.609017 277.967015 234.795631 252.776287L238.532959 253.021366C232.888803 265.782544 228.846429 275.812001 226.405713 283.110037 223.8633 290.688852 221.95652 296.906777 220.685314 301.763998 224.600629 294.284552 227.969274 288.93091 230.791352 285.702912 233.61343 282.474914 236.066821 280.588927 238.151599 280.044895 241.914369 279.062984 243.795726 279.919493 243.795726 282.61445 243.795726 284.292442 242.855047 287.537918 240.973662 292.350975 239.092277 297.164032 238.151599 300.282389 238.151599 301.70614 238.151599 303.129891 238.83804 303.662625 240.210943 303.30436 240.922818 303.118593 242.117734 302.120334 243.795726 300.309551zM299.550549 258.988613C296.703047 259.731681 295.279317 258.959141 295.279317 256.67097 295.279317 255.399764 295.63525 254.239085 296.347125 253.188898 297.059001 252.13871 297.974255 251.467667 299.092917 251.175747 300.211578 250.883828 301.126833 250.975496 301.838708 251.450756 302.550584 251.926017 302.906516 252.697542 302.906516 253.765355 302.906516 254.833168 302.601431 255.904307 301.991252 256.978805 301.381073 258.053302 300.567514 258.723231 299.550549 258.988613zM298.559013 281.747595L300.084453 282.646148C298.864095 285.303625 297.249687 287.720676 295.241181 289.897373 293.232676 292.074069 291.414878 293.374703 289.787734 293.799314 286.940233 294.542382 285.516503 292.930859 285.516503 288.964696 285.516503 284.032416 287.550402 277.069454 291.618262 268.075601 292.53353 266.107918 293.067429 264.951645 293.219974 264.606748L296.499669 265.733969C295.431856 267.944853 294.122533 271.362799 292.571662 275.98791 291.02079 280.613021 290.245366 283.523 290.245366 284.717934 290.245366 285.912868 290.499604 286.698219 291.008086 287.07401 291.516569 287.449802 292.126738 287.544813 292.838614 287.359046 294.211516 287.000781 296.118297 285.130316 298.559013 281.747595zM322.279601 276.854225L323.957585 278.323147C322.686379 280.637956 321.148242 282.590187 319.343129 284.179901 317.538017 285.769615 315.720219 286.8033 313.889682 287.280986 312.059145 287.758673 310.609992 287.615649 309.542179 286.851911 308.474366 286.088173 307.940467 284.791055 307.940467 282.960518 307.940467 278.689265 309.542163 272.372987 312.745603 264.011495 310.152342 265.095004 307.55912 266.381887 304.96586 267.872181L304.431956 265.036899 304.355684 264.98053C306.898096 263.249263 310.228606 261.515744 314.347314 259.779922 314.7541 258.911045 315.669355 256.816273 317.093106 253.49554 319.940608 246.904923 321.974507 242.586031 323.194865 240.538733L326.47456 240.979505C325.966078 242.230857 325.076247 244.331708 323.805041 247.282119 322.533835 250.232531 321.110105 253.565925 319.533809 257.282403 321.82198 256.53275 323.627066 255.985433 324.949121 255.640437 326.271175 255.295441 327.288125 255.233453 328 255.454472L328 258.734168C327.288125 258.76739 326.258463 258.959814 324.910985 259.311444 323.563506 259.663075 321.160962 260.518843 317.703282 261.878775 314.703235 269.373619 313.203234 274.646409 313.203234 277.697304 313.203234 278.866813 313.571879 279.736716 314.309178 280.307038 315.046478 280.87736 316.038004 280.999973 317.283786 280.674881 318.529568 280.349788 320.194823 279.076249 322.279601 276.854225z"/>
  </g>
</svg>
