<svg xmlns="http://www.w3.org/2000/svg" xmlns:xlink="http://www.w3.org/1999/xlink"><defs><linearGradient id="b" x1="50%" x2="50%" y1="0%" y2="88.043%"><stop stop-color="#015374" offset="0%"/><stop stop-color="#21A08C" offset="100%"/></linearGradient><circle id="a" cx="179" cy="130" r="130"/></defs><symbol id="fire-icon" viewBox="0 0 26 26"><path fill-rule="evenodd" d="M13 26c7.18 0 13-5.82 13-13S20.18 0 13 0 0 5.82 0 13s5.82 13 13 13zM11.257 5c2.379.8 3.357 1.668 4.757 3.2.011 2.034-1.045 4.038-1.045 4.038s1.812-.974 2.63-2.439c2.761 3.673 3.147 8.289-3.171 11.2 0 0 1.313-2.154.793-3.2-.519-1.046-2.377-.8-1.585-4-4.757 2.4-2.379 7.2-2.379 7.2S6.5 18.537 6.5 15.398c0-5.104 6.674-4.265 4.757-10.398z"/></symbol><symbol id="logo" viewBox="0 0 372 358"><g fill-rule="evenodd"><mask id="c"><use xlink:href="#a"/></mask><use xlink:href="#a"/><path d="M9.126 224C2.81 216.588-1 206.988-1 196.5c0-23.472 19.086-42.5 42.63-42.5 17.32 0 32.228 10.297 38.9 25.085 21.018 1.034 37.672 11.412 38.616 24.263a38.391 38.391 0 0 1 5.178-.348c15.318 0 27.736 8.954 27.736 20 0 .335-.011.669-.034 1h.945c3.054-3.02 8.178-5 13.984-5 5.806 0 10.93 1.98 13.984 5h3.655c3.289-3.65 8.43-6 14.206-6 4.258 0 8.17 1.276 11.25 3.41 4.502-10.264 14.56-17.41 26.244-17.41 1.933 0 3.821.195 5.647.568C247.452 190.191 261.243 180 277.384 180c1.04 0 2.071.042 3.09.125C288.096 164.601 303.402 154 321.042 154c25.247 0 45.713 21.714 45.713 48.5 0 7.72-1.7 15.02-4.726 21.5H376v67H3.109v-67h6.017z" opacity=".6" mask="url(#c)"/><g transform="translate(141 30)" mask="url(#c)"><path d="M48.72 185.645c.117 15.855 5.357 38.61 5.357 38.61H21.923s5.239-22.743 5.357-38.604C27.112 164.723 16.564 124 16.564 124h42.872s-10.55 40.215-10.716 61.645zM13.45 107.91H.95s0-22.748 12.723-30.01C14.835 43.418 19.76-.64 37.374.007c17.45.642 22.79 43.61 24.282 77.531C75.05 84.371 75.05 107.91 75.05 107.91H62.16c-.059 6.334-.2 10.2-.2 10.2H13.728s-.17-3.866-.28-10.2zM37.93 45.638c4.44 0 8.038-3.605 8.038-8.053 0-4.447-3.599-8.052-8.038-8.052-4.44 0-8.039 3.605-8.039 8.052 0 4.448 3.6 8.053 8.039 8.053z"/></g><g transform="translate(65 36)" opacity=".453" mask="url(#c)" stroke-linecap="square"><path stroke="#FFF" d="M2.5 79.5v4m2-2h-4M38.5 49.5v4m2-2h-4M44.5 109.5v4m2-2h-4M76.5 126.5v4m2-2h-4M159.5 128.5v4m2-2h-4M201.5 91.5v4m2-2h-4M209.5 41.5v4m2-2h-4M172.5 43.5v4m2-2h-4M172.5.5v4m2-2h-4M50.5 2.5v4m2-2h-4"/></g><path d="M10.858 240C4.709 232.588 1 222.988 1 212.5 1 189.028 19.58 170 42.5 170c16.86 0 31.372 10.297 37.867 25.085 20.46 1.034 36.673 11.412 37.592 24.263A36.397 36.397 0 0 1 123 219c14.912 0 27 8.954 27 20 0 .335-.011.669-.033 1h.92c2.973-3.02 7.961-5 13.613-5 5.652 0 10.64 1.98 13.613 5h3.558c3.202-3.65 8.206-6 13.829-6 4.145 0 7.954 1.276 10.952 3.41C210.834 227.146 220.625 220 232 220c1.881 0 3.72.195 5.497.568C242.862 206.191 256.287 196 272 196c1.013 0 2.016.042 3.008.125C282.428 180.601 297.328 170 314.5 170c24.577 0 44.5 21.714 44.5 48.5 0 7.72-1.655 15.02-4.6 21.5H368v67H5v-67h5.858z"/><path d="M4 236.728c-2.565-5.524-4-11.704-4-18.228C0 195.028 18.58 176 41.5 176c16.86 0 31.372 10.297 37.867 25.085 20.46 1.034 36.673 11.412 37.592 24.263A36.397 36.397 0 0 1 122 225c14.912 0 27 8.954 27 20 0 .752-.056 1.494-.165 2.224 2.744-3.697 8.28-6.224 14.665-6.224 7.05 0 13.067 3.081 15.43 7.417 2.904-4.998 8.786-8.417 15.57-8.417 4.145 0 7.954 1.276 10.952 3.41C209.834 233.146 219.625 226 231 226c1.881 0 3.72.195 5.497.568C241.862 212.191 255.287 202 271 202c1.013 0 2.016.042 3.008.125C281.428 186.601 296.328 176 313.5 176c24.577 0 44.5 21.714 44.5 48.5 0 5.392-.807 10.578-2.297 15.423L372 236.266V313H4v-76.272zm142.892 16.033l.108-.193c0 .064.002.13.004.194l-.112-.001z"/><path d="M34.84 260.856v5.112c1.032.504 1.968.84 2.832 1.008.864.168 1.752.24 2.664.24.864 0 1.704-.12 2.496-.336a6.034 6.034 0 0 0 2.088-1.008 5.201 5.201 0 0 0 1.44-1.704c.36-.672.552-1.464.552-2.376v-8.088l1.344-.312c.288-.048.504-.24.624-.6s.192-.72.192-1.104c0-.408-.048-.744-.144-1.032-.096-.288-.288-.432-.552-.432h-8.352c-.264 0-.456.144-.552.432a3.244 3.244 0 0 0-.144 1.032c0 .384.072.744.192 1.104.12.36.336.552.624.6l1.584.312v7.944c0 .6-.12 1.056-.336 1.368-.216.312-.696.48-1.416.48-.144 0-.336-.024-.576-.072a1.955 1.955 0 0 1-.6-.216l-.48-2.256a.583.583 0 0 0-.216-.336 1.63 1.63 0 0 0-.456-.264 2.571 2.571 0 0 0-.648-.144c-.24-.024-.456-.048-.672-.048-.408 0-.744.048-1.032.168-.288.12-.432.288-.432.528h-.024zm21.78-7.176v6.528c0 1.368.192 2.496.552 3.384.36.888.864 1.608 1.536 2.136s1.488.912 2.448 1.128c.96.216 2.04.312 3.24.312 1.176 0 2.256-.12 3.216-.336.96-.216 1.776-.6 2.448-1.128.672-.528 1.176-1.248 1.536-2.136.36-.888.552-2.016.552-3.384v-6.528l1.344-.312c.288-.072.504-.264.624-.6.12-.336.192-.696.192-1.08 0-.408-.048-.768-.144-1.08-.096-.312-.264-.456-.504-.456H66.1c-.264 0-.456.144-.552.432a3.244 3.244 0 0 0-.144 1.032c0 .384.072.744.192 1.08.12.336.336.552.624.624l1.32.312v6.528c0 .792-.096 1.416-.312 1.848-.216.432-.456.744-.744.96a1.934 1.934 0 0 1-.888.384 5.35 5.35 0 0 1-.792.072c-.24 0-.528-.024-.84-.072a2.017 2.017 0 0 1-.912-.384c-.288-.216-.528-.552-.744-.984-.216-.432-.312-1.056-.312-1.848v-6.528l1.08-.312c.288-.072.504-.264.624-.576.12-.312.192-.672.192-1.056 0-.408-.048-.768-.144-1.08-.096-.312-.264-.456-.504-.456h-8.16c-.264 0-.432.144-.528.432a3.244 3.244 0 0 0-.144 1.032c0 .384.072.744.192 1.104.12.36.312.552.576.6l1.44.408zm23.1 7.512v4.704c.768.336 1.728.648 2.88.912a16.789 16.789 0 0 0 6.648.144 8.895 8.895 0 0 0 2.52-.84 4.945 4.945 0 0 0 1.8-1.56c.456-.648.672-1.44.672-2.376 0-.648-.096-1.224-.264-1.704a3.614 3.614 0 0 0-.768-1.272 5.108 5.108 0 0 0-1.296-.984 15.009 15.009 0 0 0-1.848-.84l-2.976-1.128c-.168-.072-.336-.144-.528-.24a3.82 3.82 0 0 1-.528-.312 1.315 1.315 0 0 1-.384-.432 1.14 1.14 0 0 1-.144-.576c0-.432.192-.744.576-.912.384-.168.888-.264 1.488-.264.432 0 .792.024 1.104.072.312.048.6.096.888.168l.576 1.992a.694.694 0 0 0 .288.36c.144.096.312.168.504.24.192.072.408.12.624.144.216.024.432.048.624.048.36 0 .72-.048 1.056-.144.336-.096.504-.288.504-.552v-4.776c-.768-.312-1.68-.576-2.736-.768a18.565 18.565 0 0 0-3.336-.288c-1.104 0-2.112.096-3.048.288-.936.192-1.752.504-2.424.912-.672.408-1.2.936-1.584 1.56-.384.624-.576 1.368-.576 2.232 0 1.224.336 2.232 1.008 3.048.672.816 1.584 1.44 2.736 1.872l3.048 1.152c.48.168.864.336 1.152.48.288.144.504.288.648.432.144.144.24.264.288.384.048.12.072.24.072.36s-.024.24-.072.36c-.048.12-.144.216-.312.312s-.408.168-.72.216a9.01 9.01 0 0 1-1.296.072c-.6 0-1.104-.024-1.536-.072a3.533 3.533 0 0 1-1.104-.288l-.528-2.04c-.024-.144-.12-.264-.264-.36a2.458 2.458 0 0 0-.504-.24 2.63 2.63 0 0 0-.624-.144 5.91 5.91 0 0 0-.624-.048c-.36 0-.72.048-1.056.144-.336.096-.504.288-.504.552h-.12zm26.22 2.328l-1.704.312c-.288.048-.504.24-.624.6s-.192.744-.192 1.152c0 .36.048.696.144.984.096.288.288.432.552.432h8.832c.264 0 .456-.144.552-.432.096-.288.144-.624.144-.984 0-.408-.072-.792-.192-1.152-.12-.36-.336-.552-.624-.6l-1.704-.312v-9.624h2.088l.456 2.448a.516.516 0 0 0 .24.36c.144.096.312.168.504.24.192.072.384.12.6.144.216.024.432.048.624.048.36 0 .72-.048 1.056-.168.336-.12.504-.312.504-.576v-6.24H99.94v6.24c0 .264.168.456.504.576.336.12.696.168 1.056.168.408 0 .816-.072 1.224-.216.408-.144.648-.36.72-.624l.48-2.448h2.088l-.072 9.672zm-55.875 85.819l15.864-3.682c2.238-.584 4.399-1.885 6.484-3.904l2.059 2.208c-1.017 1.435-1.83 2.525-2.44 3.269-.611.744-1.514 1.551-2.708 2.422-1.195.872-2.53 1.5-4.005 1.884l-14.263 3.112c-6.356 1.659-9.457 2.544-9.305 2.657-1.881.44-2.822-.153-2.822-1.78.153-1.057.84-2.927 2.06-5.61 1.22-2.683 2.872-7.398 4.957-14.145-3.152.822-5.974.618-8.466-.613l1.602-3.24c2.186.853 4.856.868 8.008.046 2.95-7.99 6.687-14.381 11.212-19.172 4.526-4.791 9.255-7.83 14.187-9.118 2.339-.61 4.22-.503 5.644.32 1.424.823 2.136 2.227 2.136 4.21 0 4.27-2.81 9.008-8.428 14.212-5.62 5.203-12.013 8.97-19.183 11.298-2.339 8.034-4.958 13.777-7.856 17.228 1.271-.484 3.026-1.018 5.263-1.602zm18.229-40.452c-3.153.822-6.076 3.187-8.771 7.094-2.695 3.907-4.628 8.555-5.797 13.945 5.085-1.683 9.534-4.37 13.348-8.06 3.813-3.69 5.72-7.01 5.72-9.959 0-1.169-.432-2.048-1.297-2.636-.864-.588-1.932-.716-3.203-.384zm46.22 23.023l1.755.84c-.712 1.71-2.021 3.501-3.928 5.372-1.907 1.87-3.648 3.011-5.225 3.423-3 .782-4.5-.402-4.5-3.555 0-1.475.382-3.328 1.144-5.561l-2.822 3.634c-2.746 3.514-5.123 6.015-7.131 7.506-2.009 1.49-3.979 2.487-5.911 2.991-1.932.504-3.394.34-4.386-.495-.991-.835-1.487-2.218-1.487-4.15 0-3.56 1.373-7.44 4.119-11.639 2.745-4.2 6.254-7.95 10.525-11.25 4.271-3.302 8.543-5.535 12.814-6.7l.152 2.477-3.203 1.522c-4.627 2.225-8.708 5.323-12.242 9.296-3.534 3.973-5.3 7.473-5.3 10.498 0 3.026 1.22 4.22 3.66 3.583 2.289-.597 5.11-2.935 8.467-7.014a60.847 60.847 0 0 0 8.39-13.478l3.203 1.07c-3.153 7.18-4.729 11.633-4.729 13.362 0 .712.242 1.246.725 1.603s.966.473 1.449.347c.483-.126.8-.235.953-.325.153-.091.305-.194.458-.31.152-.117.343-.28.572-.493.229-.212.432-.418.61-.617s.47-.504.877-.915c.407-.411.737-.752.992-1.022zm33.637-9.464l1.601.88c-.864 2.36-2.224 4.52-4.08 6.48-1.856 1.958-3.534 3.133-5.034 3.525-1.5.391-2.682.179-3.547-.638-.864-.817-1.296-2.064-1.296-3.742s.28-3.912.839-6.702c-2.39 4.386-4.958 8.005-7.704 10.857-2.746 2.852-5.06 4.524-6.94 5.015-2.848.743-4.272-.92-4.272-4.987 0-3.458 1.17-8.187 3.509-14.187s4.042-9.572 5.11-10.715l3.66.646c-2.084 3.9-3.66 7.617-4.728 11.15-1.068 3.533-1.602 5.846-1.602 6.939s.344 1.88 1.03 2.363c.686.481 1.487.603 2.403.364 2.034-.53 4.563-3.06 7.589-7.586 3.025-4.527 6.114-10.914 9.267-19.16l3.89.739c-.102.433-1.259 3.684-3.47 9.753-2.213 6.069-3.319 9.65-3.319 10.743s.242 1.857.725 2.29c.483.433.966.587 1.45.46.482-.125.85-.247 1.105-.364.254-.117.509-.285.763-.504.254-.22.47-.403.648-.55.178-.149.394-.383.648-.704l.61-.693c.102-.18.293-.47.573-.874.28-.403.47-.67.572-.798zm34.932-9.954l1.602.802a23.585 23.585 0 0 1-4.615 6.848c-1.957 2.037-3.724 3.26-5.3 3.672-1.577.411-2.822.279-3.738-.398-.915-.676-1.373-1.7-1.373-3.074 0-1.373.877-4.004 2.632-7.894 1.754-3.89 2.631-6.649 2.631-8.276 0-.712-.292-1.284-.877-1.716-.585-.432-1.284-.542-2.097-.33-2.594.677-5.212 3.33-7.857 7.961-2.644 4.631-5.593 11.083-8.847 19.356l-4.576-.407c.966-6.151 2.351-12.271 4.156-18.36 1.806-6.09 3.47-10.555 4.996-13.394l3.127.176c-1.423 3.982-3.228 10.681-5.415 20.1 7.017-13.832 13.475-21.517 19.373-23.056 1.271-.332 2.326-.175 3.165.47.84.646 1.259 1.554 1.259 2.723 0 1.17-.153 2.264-.458 3.285-.305 1.02-1.258 3.455-2.86 7.306-1.602 3.85-2.402 6.207-2.402 7.072 0 .864.254 1.471.762 1.822.509.35.992.466 1.45.346.457-.12.838-.295 1.144-.527.305-.232.648-.55 1.03-.955.38-.405.724-.774 1.029-1.108.305-.334.674-.773 1.106-1.318.432-.545.75-.92.953-1.126zm24.102-7.892l1.83 1.048c-1.22 3.115-3.177 5.863-5.872 8.245-2.695 2.381-5.301 3.9-7.818 4.557-2.517.657-4.602.413-6.254-.733-1.653-1.145-2.48-3.09-2.48-5.836 0-2.746 1.196-6.032 3.586-9.86 2.39-3.826 5.478-7.276 9.267-10.35 3.788-3.073 7.512-5.087 11.173-6.043.509-.132 1.272-.28 2.289-.444l-.23 3.034c-5.593 1.714-10.232 4.628-13.919 8.743-3.686 4.114-5.53 7.951-5.53 11.51 0 1.475.458 2.55 1.373 3.227.916.677 2.11.822 3.585.438 2.34-.61 5.34-3.122 9-7.536zm36.61-4.29l1.755.99c-2.136 4.118-4.907 6.62-8.314 7.51-2.949.77-4.423-.295-4.423-3.194 0-1.678.724-4.549 2.173-8.614 1.45-4.064 2.174-6.681 2.174-7.85 0-1.475-.94-1.967-2.822-1.476-1.881.49-4.436 3.179-7.665 8.064-3.23 4.885-5.937 10.282-8.123 16.192l-4.5-.428c2.644-13.961 9.559-33.537 20.746-58.728l3.737.245c-5.644 12.762-9.687 22.791-12.127 30.089-2.543 7.579-4.45 13.797-5.72 18.654 3.915-7.48 7.283-12.833 10.105-16.061 2.822-3.228 5.276-5.114 7.36-5.658 3.763-.982 5.645-.126 5.645 2.57 0 1.677-.941 4.923-2.822 9.736-1.882 4.813-2.822 7.931-2.822 9.355 0 1.424.686 1.957 2.059 1.598.712-.185 1.907-1.184 3.585-2.994zm55.756-41.321c-2.848.743-4.272-.03-4.272-2.318 0-1.271.356-2.432 1.068-3.482.712-1.05 1.627-1.721 2.746-2.013 1.119-.292 2.034-.2 2.746.275.712.475 1.068 1.247 1.068 2.314 0 1.068-.306 2.14-.916 3.214-.61 1.074-1.423 1.744-2.44 2.01zm-.992 22.759l1.525.898a27.65 27.65 0 0 1-4.843 7.251c-2.008 2.177-3.826 3.478-5.453 3.902-2.848.743-4.271-.868-4.271-4.834 0-4.933 2.033-11.896 6.101-20.89.916-1.967 1.45-3.123 1.602-3.468l3.28 1.127c-1.068 2.21-2.377 5.629-3.928 10.254-1.551 4.625-2.327 7.535-2.327 8.73 0 1.195.255 1.98.763 2.356.509.376 1.119.47 1.83.285 1.374-.358 3.28-2.229 5.721-5.611zm23.72-4.894l1.679 1.47c-1.272 2.314-2.81 4.266-4.615 5.856-1.805 1.59-3.623 2.623-5.453 3.101-1.83.478-3.28.335-4.348-.43-1.068-.763-1.602-2.06-1.602-3.89 0-4.272 1.602-10.588 4.806-18.95a69.053 69.053 0 0 0-7.78 3.861l-.534-2.835-.076-.056c2.542-1.732 5.873-3.465 9.991-5.201.407-.869 1.322-2.964 2.746-6.284 2.848-6.591 4.882-10.91 6.102-12.957l3.28.44a377.34 377.34 0 0 1-2.67 6.303 1932.69 1932.69 0 0 0-4.271 10c2.288-.75 4.093-1.297 5.415-1.642s2.34-.407 3.051-.186v3.28c-.712.033-1.742.226-3.089.577-1.347.352-3.75 1.208-7.208 2.568-3 7.495-4.5 12.767-4.5 15.818 0 1.17.369 2.04 1.106 2.61.737.57 1.729.693 2.975.368 1.246-.325 2.91-1.599 4.996-3.82z"/></g></symbol><symbol id="map" viewBox="0 0 20 20"><path d="M10.292 4.229a2.69 2.69 0 1 0 0 5.381 2.69 2.69 0 0 0 0-5.381zm0 4.306a1.615 1.615 0 1 1 0-3.23 1.615 1.615 0 0 1 0 3.23zm0-7.535a6.458 6.458 0 0 0-6.458 6.458c0 3.567 6.458 10.764 6.458 10.764s6.458-7.196 6.458-10.764A6.458 6.458 0 0 0 10.292 1zM4.91 7.525c0-3.009 2.41-5.449 5.382-5.449 2.971 0 5.381 2.44 5.381 5.449s-5.381 9.082-5.381 9.082S4.91 10.535 4.91 7.525z"/></symbol></svg>