<svg xmlns="http://www.w3.org/2000/svg"><symbol id="close-icon" viewBox="0 0 20 20"><path d="M10.185 1.417A8.582 8.582 0 0 0 1.602 10c0 4.74 3.842 8.582 8.583 8.582S18.768 14.74 18.768 10a8.582 8.582 0 0 0-8.583-8.583m0 16.263c-4.235 0-7.679-3.445-7.679-7.68 0-4.235 3.444-7.679 7.679-7.679S17.864 5.765 17.864 10c0 4.234-3.444 7.68-7.679 7.68m.639-7.68l2.842-2.844a.447.447 0 0 0 0-.637.447.447 0 0 0-.637 0L10.185 9.36 7.341 6.52a.447.447 0 0 0-.637 0 .447.447 0 0 0 0 .637L9.546 10l-2.841 2.844a.447.447 0 0 0 0 .637.447.447 0 0 0 .637 0l2.844-2.841 2.844 2.841a.447.447 0 0 0 .637 0 .447.447 0 0 0 0-.637L10.824 10z"/></symbol><symbol id="fire-icon" viewBox="0 0 26 26"><path fill-rule="evenodd" d="M13 26c7.18 0 13-5.82 13-13S20.18 0 13 0 0 5.82 0 13s5.82 13 13 13zM11.257 5c2.379.8 3.357 1.668 4.757 3.2.011 2.034-1.045 4.038-1.045 4.038s1.812-.974 2.63-2.439c2.761 3.673 3.147 8.289-3.171 11.2 0 0 1.313-2.154.793-3.2-.519-1.046-2.377-.8-1.585-4-4.757 2.4-2.379 7.2-2.379 7.2S6.5 18.537 6.5 15.398c0-5.104 6.674-4.265 4.757-10.398z"/></symbol></svg>